<?xml version="1.0" encoding="utf-8"?>
<svg xmlns="http://www.w3.org/2000/svg" viewBox="196.7885 227.4117 24.492 25.6954" width="24.492px" height="25.6954px" xmlns:bx="https://boxy-svg.com"><defs><filter id="duotone-filter-0" bx:preset="duotone 1 #f2672b #f2672b 1" color-interpolation-filters="sRGB" x="-50%" y="-50%" width="200%" height="200%"><feColorMatrix type="matrix" result="grayscale" values="1 0 0 0 0 1 0 0 0 0 1 0 0 0 0 0 0 0 1 0"/><feComponentTransfer color-interpolation-filters="sRGB"><feFuncR type="gamma" exponent="1.5" amplitude="1" offset="0"/><feFuncG type="gamma" exponent="1.5" amplitude="1" offset="0"/><feFuncB type="gamma" exponent="1.5" amplitude="1" offset="0"/></feComponentTransfer><feComponentTransfer color-interpolation-filters="sRGB" result="duotone"><feFuncR type="table" tableValues="0.949 0.949"/><feFuncG type="table" tableValues="0.404 0.404"/><feFuncB type="table" tableValues="0.169 0.169"/><feFuncA type="table" tableValues="0 1"/></feComponentTransfer></filter></defs><g id="svg820" style="filter: url(&quot;#duotone-filter-0&quot;);" transform="matrix(1, 0, 0, 1, 1.4210854715202004e-14, 0)"><g id="layer1" transform="matrix(1, 0, 0, 1, 193.034454, -866.260071)"><path style="opacity:1;vector-effect:none;fill:#373737;fill-opacity:1;stroke:none;stroke-width:2;stroke-linecap:butt;stroke-linejoin:bevel;stroke-miterlimit:4;stroke-dasharray:none;stroke-dashoffset:3.20000005;stroke-opacity:1" d="m17.198 1099.53-1.65 2.858a7 7 30 0 0-1.42-.187l-.854-3.186-3.863 1.035.852 3.18a7 7 30 0 0-1.14.877l-2.853-1.648-2 3.464 2.857 1.65a7 7 30 0 0-.187 1.42l-3.186.854 1.036 3.864 3.18-.853a7 7 30 0 0 .876 1.14l-1.648 2.853 3.464 2 1.65-2.857a7 7 30 0 0 1.421.187l.854 3.186 3.863-1.035-.852-3.18a7 7 30 0 0 1.14-.876l2.853 1.647 2-3.464-2.857-1.65a7 7 30 0 0 .186-1.42l3.186-.854-1.035-3.864-3.18.853a7 7 30 0 0-.876-1.14l1.647-2.853zm-1.268 6.197a4 4 0 0 1 1.464 5.464 4 4 0 0 1-5.464 1.464 4 4 0 0 1-1.464-5.464 4 4 0 0 1 5.464-1.464z" id="rect2175-7"/><path style="opacity:1;vector-effect:none;fill:#373737;fill-opacity:1;stroke:none;stroke-width:2;stroke-linecap:butt;stroke-linejoin:bevel;stroke-miterlimit:4;stroke-dasharray:none;stroke-dashoffset:3.20000005;stroke-opacity:1" d="m18.585 1096.867.98.566a4 4 0 0 0 1.05 3.917l-.566.981 1.732 1 .566-.979a4 4 0 0 0 3.917-1.05l.982.567 1-1.732-.98-.566a4 4 0 0 0-1.051-3.917l.566-.982-1.732-1-.565.98a4 4 0 0 0-3.918 1.05l-.981-.567zm3.098.634a2 2 30 0 1 2.732-.732 2 2 30 0 1 .732 2.732 2 2 30 0 1-2.732.732 2 2 30 0 1-.732-2.732z" id="rect2261"/></g></g></svg>